<svg version="1.2" xmlns="http://www.w3.org/2000/svg" viewBox="0 0 1548 1527" width="1548" height="1527"><style>.a{fill:#0089cf}</style><path class="a" d="m898.3 587.7c7.5-17.6 15.1-35.2 15.7-53.4h-240l-5.7 3.8-6.9 23.2c-5.6 17 6.9 13.8 13.2 17 19.5 8.1 25.1 22 21.4 38.9l-76.1 235c-9.4 25.8-28.9 28.9-58.4 32.7-5 15.7-6.9 21.3-11.9 34.5l5 5.1h430.4l52.2-169.1c-11.4-3.7-25.8-4.4-42.1-0.6-10.7 17-12.6 43.4-25.8 66.6-8.2 14.5-21.4 28.3-42.1 39-41.5 17.6-69.7 10-132 10.7-5 0-10.6-0.7-15-1.3-9.5-0.6-9.5-3.8-8.2-10.1l77.3-246.2c7.5-20.1 28.3-23.9 49-25.8z"/><path fill-rule="evenodd" class="a" d="m774.2 1527c-427.9 0-773.8-341.1-773.8-763.1 0-421.9 345.9-763 773.8-763 427.9 0 773.8 341.1 773.8 763 0 422-345.9 763.1-773.8 763.1zm332.7-763.4c0-181.3-148.7-327.9-332.7-327.9-184 0-332.7 146.6-332.7 327.9 0 181.4 148.7 328 332.7 328 184 0 332.7-146.6 332.7-328zm-852.7-401.5l-3.1 13.2c-1.3 167.8 72.9 322.3 116.2 370.7 26.4-380.1 333.1-589.9 426.1-635.8-253.9-22.6-498.3 165.9-539.2 251.9zm116.9 916.7l14.5 3.1c167.7 1.3 321.7-72.2 370.7-116.2-380.2-27-590.6-333-635.9-426-23.9 253.9 165.3 498.3 250.7 539.1zm923.1-113.1l3.1-13.8c0.6-167.1-73.5-321.1-116.3-370.7-27 379.5-333.6 589.3-426.6 635.8 254.5 23.3 498.9-165.8 539.8-251.3zm-118.2-916l-13.8-3.8c-167.8-1.2-322.3 72.3-370.7 116.2 380.1 26.4 590 333 636.5 425.4 22.6-253.8-165.9-498.2-252-537.8z"/></svg>