<svg version="1.2" baseProfile="tiny-ps" xmlns="http://www.w3.org/2000/svg" viewBox="0 0 1547 1258" width="1547" height="1258">
	<title>Honda-svg</title>
	<style>
		tspan { white-space:pre }
		.shp0 { fill: #000000 } 
	</style>
	<g id="Layer">
		<path id="svg_6" class="shp0" d="M1128.17 107.05C1093.04 265.19 1078.57 338.57 1049.64 452.27C1021.74 561.83 1000.04 664.16 962.84 713.77C925.64 764.42 875.01 774.76 840.91 778.89C823.34 780.96 809.91 781.99 771.67 781.99C733.44 781.99 720.01 780.96 702.44 778.89C668.34 774.76 617.71 764.42 580.51 713.77C543.31 664.16 521.61 561.83 494.74 452.27C465.81 337.54 451.34 265.19 416.21 107.05C416.21 107.05 381.07 108.08 365.57 109.11C343.87 110.15 327.34 112.21 309.77 114.28C309.77 114.28 330.44 439.87 339.74 578.37C349.04 723.08 366.61 968.04 382.11 1153.06C382.11 1153.06 412.07 1158.22 461.67 1160.29C513.34 1163.39 537.11 1163.39 537.11 1163.39C558.81 1081.74 584.64 969.07 614.61 920.49C639.41 881.22 676.61 877.08 698.31 873.98C731.37 869.85 760.31 868.81 772.71 868.81L772.71 868.81L772.71 868.81C786.14 868.81 814.04 868.81 847.11 873.98C868.81 877.08 906.01 881.22 930.81 920.49C960.77 969.07 987.64 1081.74 1008.31 1163.39C1008.31 1163.39 1031.04 1163.39 1082.71 1160.29C1132.31 1157.19 1162.27 1153.06 1162.27 1153.06C1177.77 968.04 1195.34 724.11 1204.64 578.37C1213.94 440.9 1234.61 114.28 1234.61 114.28C1217.04 112.21 1199.47 110.15 1178.81 109.11C1163.31 108.08 1128.17 107.05 1128.17 107.05Z" />
		<path id="svg_7" fill-rule="evenodd" class="shp0" d="M1538.41 299.3C1543.57 355.11 1545.64 428.5 1546.67 508.08C1544.61 639.35 1533.24 728.24 1527.04 789.23C1522.91 830.57 1505.34 957.7 1482.61 1022.82C1451.61 1112.74 1423.71 1138.58 1390.64 1165.46C1330.71 1215.07 1231.51 1229.54 1210.84 1233.68C1099.24 1254.35 872.94 1257.45 773.74 1257.45C673.51 1257.45 448.24 1253.32 336.64 1233.68C315.97 1229.54 216.77 1214.04 156.84 1165.46C123.77 1138.58 95.87 1112.74 64.87 1022.82C42.14 957.7 24.57 831.6 20.44 789.23C14.24 727.21 2.87 639.35 0.81 508.08C-0.23 429.53 0.81 356.14 7.01 299.3C27.67 92.57 166.14 49.16 287.04 28.49C348.01 18.16 456.51 9.89 525.74 6.79C586.71 2.65 729.31 0.58 772.71 0.58C816.11 0.58 958.71 2.65 1019.67 6.79C1088.91 9.89 1197.41 18.16 1258.37 28.49C1379.27 49.16 1517.74 92.58 1538.41 299.3M1456.77 299.3C1440.24 170.1 1376.17 104.98 1238.74 80.17C1174.67 68.8 1087.87 60.53 1006.24 56.4C941.14 52.26 832.64 49.16 772.71 50.2C711.74 50.2 604.27 52.26 538.14 56.4C456.51 60.53 369.71 68.8 305.64 80.17C168.21 103.94 104.14 169.06 88.64 299.3C77.27 386.12 76.24 547.36 83.47 646.59C94.84 811.97 110.34 911.19 131.01 982.51C149.61 1044.53 172.34 1086.9 205.41 1116.88C261.21 1167.53 337.67 1177.86 383.14 1185.1C480.27 1199.57 643.54 1204.74 772.71 1204.74C900.84 1204.74 1065.14 1199.57 1162.27 1185.1C1207.74 1177.86 1284.21 1167.53 1340.01 1116.88C1373.07 1086.9 1395.81 1045.56 1414.41 982.51C1435.07 911.19 1449.54 811.97 1461.94 646.59C1469.17 546.33 1468.14 385.09 1456.77 299.3Z" />
	</g>
</svg>