<svg version="1.2" xmlns="http://www.w3.org/2000/svg" viewBox="0 0 1547 1547" width="1547" height="1547">
	<title>LT</title>
	<style>
		.s0 { fill: #024d87 } 
	</style>
	<g id="Group_6">
		<path id="Path_1" fill-rule="evenodd" class="s0" d="m773.2 0c312.5 0 594.3 188.1 714 477.6 119.6 288.9 53.3 622-167.6 843-221 221-554 287.3-842.8 167.1-288.3-119.7-477-402.1-476.4-715.3 0.5-101.3 20.5-201.6 59.3-295.4 39.3-93.2 95.9-178.4 167.6-250.1 71.6-71.7 156.8-128.8 250.5-167.6 93.8-38.8 194-59.3 295.4-59.3zm-106.7 1441.9l329.2-573h-222.5l110.4-191.9h523.8l-111 192.4-189.1-0.5-334.1 581.6c179.4 0 351.3-71.1 478-198.3 126.6-126.7 198.3-298.7 198.3-478.2 0-179.5-71.7-351.9-198.3-478.6-126.7-127.2-298.6-198.4-478-198.4q-10.3 0-20 0-10.2 0.6-19.9 1.1-10.3 0.5-20 1.6-10.2 1.1-19.9 2.2l-332.5 575.1h412.3l-112.1 191.9h-522.8l426.8-739c-144.9 46.9-269.4 140.7-354 266.8-84.6 126.7-123.9 277.6-112.6 429.1 11.8 151.5 74.3 294.8 177.3 406.4 102.9 112.1 240.3 185.4 390.7 209.7z"/>
	</g>
</svg>