<svg version="1.2" baseProfile="tiny-ps" xmlns="http://www.w3.org/2000/svg" viewBox="0 0 1547 1434" width="1547" height="1434">
	<title>Reliance_Industries_Logo-svg</title>
	<style>
		tspan { white-space:pre }
		.shp0 { fill: #bfa161 } 
	</style>
	<g id="layer1">
		<g id="g3475">
			<path id="path262" fill-rule="evenodd" class="shp0" d="M1236.26 1329.68C1183.33 1367.1 1113.77 1372.71 1059.87 1348.4C1059.87 1348.4 1045.17 1342.79 1031.47 1327.83C1019.68 1313.77 721.78 992.99 721.78 992.99L720.81 992.04C812.94 1007.95 913.87 965.87 965.8 889.18C1017.72 816.23 1015.8 712.41 966.79 639.46C908 559.96 793.33 533.78 697.3 545.92C530.72 568.38 411.15 709.61 373.95 857.4C335.7 1025.72 363.16 1184.72 422.96 1334.37C436.64 1366.17 455.29 1398.9 477.83 1426.93C302.39 1354.02 147.57 1219.33 66.25 1038.81C-23.91 844.27 -21.95 598.3 84.87 400.96C169.14 248.53 318.07 107.29 502.31 47.42C695.34 -28.32 955.03 -12.42 1143.19 88.58C1371.49 197.07 1543.96 467.39 1544.93 708.68C1552.78 958.4 1437.11 1184.72 1236.26 1329.68" />
			<path id="path264" fill-rule="evenodd" class="shp0" d="M595.39 1424.17C510.15 1336.22 441.54 1222.13 493.5 1103.36C539.53 1012.64 580.69 920.03 600.3 815.27C608.13 924.72 677.73 1021.99 711.01 1126.75C723.75 1177.25 724.75 1229.63 704.17 1281.99C681.63 1339.03 645.36 1387.65 602.24 1431.62L595.39 1424.17L595.39 1424.17Z" />
		</g>
	</g>
</svg>